<svg id="brt_logo" data-name="brt logo" xmlns="http://www.w3.org/2000/svg" xmlns:xlink="http://www.w3.org/1999/xlink" viewBox="0 0 2464.5 1580.2"><defs><style>.cls-1{fill:#414042;}.cls-2{fill:url(#Unbenannter_Verlauf_5);}</style><linearGradient id="Unbenannter_Verlauf_5" x1="368.44" y1="1086.6" x2="737.96" y2="776.53" gradientUnits="userSpaceOnUse"><stop offset="0" stop-color="#a90034"/><stop offset="0.27" stop-color="#b03"/><stop offset="0.72" stop-color="#d30032"/><stop offset="1" stop-color="#dc0032"/></linearGradient></defs><path class="cls-1" d="M1469.75,682.44c-21.45,0-44.29,2.73-58.14,9.68V549.47h-83.06V990.42c36.71,9.7,84.47,14.51,126,14.51,106.58,0,177.21-56.73,177.21-160.56C1631.75,746.1,1566,682.44,1469.75,682.44Zm-18,251.25c-10.37,0-26.3-.72-40.15-3.47V765.47c13.16-6.22,30.47-9.69,51.23-9.69,50.52,0,84.43,31.16,84.43,85.83C1547.27,900.45,1510.6,933.69,1451.76,933.69Z"/><path class="cls-1" d="M1799,680.11c-81.36,0-134,30.17-134,123.47V1000h84.87V809.15c0-35.06,19-53.27,55.42-53.27,20.35,0,41.38,2.69,58.94,8.3V685.71a420.59,420.59,0,0,0-65.24-5.6"/><path class="cls-1" d="M2041.44,932.72c-36,0-54.68-18-54.68-52.62v-122H2096V688.87H1986.76V573.72H1903V885.67c0,92.07,51.93,121.85,132.26,121.85a416.36,416.36,0,0,0,64.38-5.52V924.55c-17.29,5.55-38.08,8.17-58.16,8.17"/><path class="cls-2" d="M871.9,744.43a12.86,12.86,0,0,1-12.18-.23L840,732.47a12.92,12.92,0,0,1-4.2-4.51l-.2-.34a13.12,13.12,0,0,1-2.05-6.22l-.5-23a12.85,12.85,0,0,1,5.86-10.62l237.37-138.29L743.16,367.93a30.95,30.95,0,0,0-26.71,0L383.35,549.48,756.51,766.71a12.69,12.69,0,0,1,6.09,10.43V1094a12.89,12.89,0,0,1-6.33,10.41l-20.09,11.15a12.93,12.93,0,0,1-6,1.37h-.38a13,13,0,0,1-6.41-1.37l-20.15-11.15A12.85,12.85,0,0,1,697,1094V811.54a7.92,7.92,0,0,0-3.36-5.54L364.9,614.62V989.47c0,8.39,5.91,18.74,13.16,23l338.6,199.69a28.94,28.94,0,0,0,26.3,0l338.64-199.69c7.22-4.29,13.12-14.58,13.11-23V614.62Z"/></svg>