<?xml version="1.0" encoding="UTF-8"?><svg id="Layer_1" xmlns="http://www.w3.org/2000/svg" viewBox="0 0 655.57 212.37"><defs><style>.cls-1{fill:#dc0032;}.cls-2{fill:#414042;}</style></defs><g><path class="cls-2" d="m357.81,162.62h11.1v4.8c-3.46,1.86-7.07,2.68-11.1,2.68-8.1,0-13.89-4.7-13.89-11.92s5.78-11.92,13.89-11.92c4.85,0,9.08,1.34,13.16,4.18l3.92-5.83c-4.9-3.46-10.68-5.21-17.08-5.21-13.68,0-21.83,8.41-21.83,18.79s8.16,18.79,21.83,18.79c7.17,0,12.54-2.12,18.32-5.52v-15.64h-18.32v6.81Zm32.41-1.34h21.78v-6.97h-21.78v-7.23h23.74v-6.97h-31.38v33.55c0,1.5.93,2.58,2.63,2.58h29.42v-6.97h-24.41v-8Zm49.34-21.89c-13.68,0-21.83,8.41-21.83,18.79s8.16,18.79,21.83,18.79,21.83-8.41,21.83-18.79-8.16-18.79-21.83-18.79Zm0,30.71c-8.16,0-13.94-4.7-13.94-11.92s5.78-11.92,13.94-11.92,13.89,4.7,13.89,11.92-5.78,11.92-13.89,11.92Zm144.69-29.99v6.97h13.78v29.16h7.64v-29.16h13.78v-6.97h-35.2Zm-105.42-.26c-4.34,0-9.24.15-13.06.26v36.13h7.64v-10.79c1.86,0,4.34.05,5.94.05,11.51,0,19.92-2.84,19.92-13.01,0-9.08-7.07-12.65-20.44-12.65Zm11.05,16.52c-2.22,2.22-6.45,2.17-10.99,2.17-1.6,0-3.61-.05-5.47-.05v-11.56c1.86-.05,3.87-.05,5.47-.05,5.94,0,9.14.21,11.25,2.32.72.72,1.24,2.06,1.24,3.25,0,1.7-.52,2.89-1.5,3.92Zm66.93-6.56c0-2.63,3.46-3.97,8.26-3.97,3.66,0,8.88,1.39,11.92,3.72l3.92-5.83c-3.92-2.63-10.68-4.34-15.69-4.34-9.19,0-16.31,4.85-16.31,11.56,0,12.65,24.46,8.26,24.46,15.48,0,2.99-4.39,4.08-8.1,4.08-5.06,0-10.84-1.75-14.4-4.54l-3.92,5.83c4.8,3.3,12.23,5.16,17.65,5.16,9.14,0,16.72-4.23,16.72-11.36,0-12.85-24.52-9.14-24.52-15.79Zm-32.61-10.43c-13.68,0-21.83,8.41-21.83,18.79s8.16,18.79,21.83,18.79,21.83-8.41,21.83-18.79-8.16-18.79-21.83-18.79Zm0,30.71c-8.16,0-13.94-4.7-13.94-11.92s5.78-11.92,13.94-11.92,13.88,4.7,13.88,11.92-5.78,11.92-13.88,11.92Z"/><path class="cls-1" d="m577.62,62.69h-93.95l-76.41,48.36c-.93.74-.15,2.17.96,1.87l170-46.03c.78-.21,1.54-.95,1.54-2.07,0-1.27-1.05-2.12-2.14-2.12Zm-131.61-24.47l37.66,17.12h57.68l4.77-8.28c2.86-4.97-.59-10.93-5.82-10.93h-93.89c-1.28,0-1.58,1.56-.41,2.1Zm51.86,73.59c5.98-.11,12.99-3.56,16.19-9.11l7.4-12.84-85.26,23.09,61.68-1.15Z"/></g><rect class="cls-2" x="299.35" y="36.13" width="1" height="140.83"/><g><path class="cls-2" d="m74.53,115.18v16.93h-5.19v-25.2h4.52l14.16,16.97v-16.97h5.19v25.2h-4.52l-14.16-16.93Z"/><path class="cls-2" d="m98.51,132.12v-25.2h19.94v4.56h-14.97v5.45h12.27v4.56h-12.27v6.08h14.97v4.56h-19.94Z"/><path class="cls-2" d="m135.39,111.48v20.64h-5.19v-20.64h-8.3v-4.56h21.49v4.56h-8Z"/><path class="cls-2" d="m165.78,121.33l-4.56,10.78h-5.63l-9.75-25.2h5.6l7.41,19.38,4.67-11.12-3.11-8.26h5.63l6.74,18.53,7.26-18.53h5.67l-10.04,25.2h-5.63l-4.26-10.78Z"/><path class="cls-2" d="m198.38,106.55c7.45,0,13.01,5.56,13.01,13.01s-5.56,12.93-13.01,12.93-12.93-5.56-12.93-12.93,5.56-13.01,12.93-13.01Zm.04,21.09c4.63,0,7.86-3.52,7.86-8.08s-3.22-8.08-7.86-8.08-7.86,3.45-7.86,8.08,3.3,8.08,7.86,8.08Z"/><path class="cls-2" d="m215.18,106.92h11.08c6.19,0,10.04,2.52,10.04,8.19,0,4-2.85,6.97-6.63,7.74l8.04,8.41v.85h-5.82l-8.41-9.08h-3.11v9.08h-5.19v-25.2Zm5.19,4.52v7.52h6.45c2.37,0,4.08-1.41,4.08-3.74,0-2.48-1.7-3.78-4.08-3.78h-6.45Z"/><path class="cls-2" d="m241.01,106.92h5.19v10.49h2.74l7.97-10.49h5.37v.78l-9,11.86,9.97,11.82v.74h-6.08l-8.26-10.19h-2.71v10.19h-5.19v-25.2Z"/><path class="cls-2" d="m59.11,159.58l-8.45,10.15h-.93l-8.41-10.15v17.01h-5.19v-25.2h4.67l9.41,11.23,9.41-11.23h4.67v25.2h-5.19v-17.01Z"/><path class="cls-2" d="m70.38,176.59v-25.2h19.94v4.56h-14.97v5.45h12.27v4.56h-12.27v6.08h14.97v4.56h-19.94Z"/><path class="cls-2" d="m118.18,159.58l-8.45,10.15h-.93l-8.41-10.15v17.01h-5.19v-25.2h4.67l9.41,11.23,9.41-11.23h4.67v25.2h-5.19v-17.01Z"/><path class="cls-2" d="m129.45,151.39h10.52c5.48,0,8.75,2.11,8.75,6.71,0,2.63-1.48,4.45-3.89,5.37,3.67.7,5.89,2.71,5.89,6.37,0,4.15-3.15,6.74-9.04,6.74h-12.23v-25.2Zm9.67,10.12c2.63,0,4.22-.74,4.22-2.82,0-2.19-1.48-2.85-4.11-2.85h-4.6v5.67h4.48Zm1.82,10.64c2.85,0,4.22-.93,4.22-2.96,0-2.3-1.67-3.11-4.67-3.11h-5.86v6.08h6.3Z"/><path class="cls-2" d="m155.14,176.59v-25.2h19.94v4.56h-14.97v5.45h12.27v4.56h-12.27v6.08h14.97v4.56h-19.94Z"/><path class="cls-2" d="m180.71,151.39h11.08c6.19,0,10.04,2.52,10.04,8.19,0,4-2.85,6.97-6.63,7.74l8.04,8.41v.85h-5.82l-8.41-9.08h-3.11v9.08h-5.19v-25.2Zm5.19,4.52v7.52h6.45c2.37,0,4.08-1.41,4.08-3.74,0-2.48-1.7-3.78-4.08-3.78h-6.45Z"/><path class="cls-2" d="m225.67,151.02c7.45,0,13.01,5.56,13.01,13.01s-5.56,12.93-13.01,12.93-12.93-5.56-12.93-12.93,5.56-13.01,12.93-13.01Zm.04,21.09c4.63,0,7.86-3.52,7.86-8.08s-3.22-8.08-7.86-8.08-7.86,3.45-7.86,8.08,3.3,8.08,7.86,8.08Z"/><path class="cls-2" d="m248.16,167.74v8.86h-4.97v-25.2h19.2v4.56h-14.23v7.23h12.23v4.56h-12.23Z"/></g></svg>